<?xml version="1.0" standalone="no"?>
<!DOCTYPE svg PUBLIC "-//W3C//DTD SVG 20010904//EN"
 "http://www.w3.org/TR/2001/REC-SVG-20010904/DTD/svg10.dtd">
<svg version="1.0" xmlns="http://www.w3.org/2000/svg"
 width="242.000000pt" height="242.000000pt" viewBox="0 0 242.000000 242.000000"
 preserveAspectRatio="xMidYMid meet">

<g transform="translate(0.000000,242.000000) scale(0.100000,-0.100000)"
fill="#000000" stroke="none">
<path d="M1188 2409 c-16 -9 -18 -26 -18 -129 0 -65 -3 -121 -7 -123 -5 -3
-50 -12 -101 -21 -86 -15 -236 -65 -293 -98 -56 -32 -178 -126 -223 -173 -47
-47 -135 -163 -164 -214 -33 -58 -83 -208 -98 -293 -9 -51 -18 -96 -21 -100
-2 -5 -58 -8 -123 -8 -109 0 -120 -2 -130 -20 -8 -14 -8 -26 0 -40 9 -17 23
-20 132 -22 l122 -3 22 -110 c40 -205 127 -369 269 -510 139 -138 295 -219
500 -259 l110 -22 3 -122 c2 -109 5 -123 22 -132 14 -8 26 -8 40 0 17 9 20 23
22 132 l3 122 73 13 c430 72 743 384 815 813 l13 75 122 3 c109 2 123 5 132
22 8 14 8 26 0 40 -9 17 -23 20 -133 22 l-122 3 -11 65 c-7 36 -14 79 -17 95
-9 60 -86 236 -133 307 -148 218 -363 360 -629 412 l-110 22 -3 120 c-2 97 -5
121 -19 132 -20 14 -23 14 -45 1z m-20 -472 c3 -134 8 -126 -101 -147 -203
-40 -397 -238 -442 -454 -7 -38 -20 -73 -27 -78 -7 -4 -62 -7 -123 -6 l-110 3
3 55 c14 264 233 560 501 677 31 14 65 29 76 34 30 14 156 38 190 36 l30 -2 3
-118z m256 96 c244 -61 473 -263 574 -506 34 -80 68 -236 59 -261 -5 -13 -26
-16 -121 -16 -71 0 -117 4 -121 11 -4 6 -13 40 -21 77 -44 214 -239 412 -441
452 -108 21 -103 13 -103 143 0 63 3 117 7 121 9 9 88 -1 167 -21z m-259 -335
c3 -13 6 -72 8 -133 l2 -110 29 -3 c16 -2 32 2 37 10 5 7 9 63 9 123 0 61 4
116 9 124 25 39 219 -48 310 -140 93 -92 179 -285 140 -310 -8 -5 -62 -9 -121
-9 -58 0 -113 -3 -122 -6 -9 -4 -16 -18 -16 -34 0 -16 7 -30 16 -34 9 -3 64
-6 122 -6 59 0 113 -4 121 -9 38 -24 -41 -205 -136 -307 -59 -64 -190 -137
-270 -150 -51 -8 -52 -6 -56 151 -2 106 -3 110 -25 113 -45 7 -52 -12 -52
-132 0 -61 -4 -117 -9 -125 -25 -39 -218 47 -310 140 -93 92 -179 285 -140
310 8 5 64 9 124 9 61 0 116 4 123 9 8 5 12 21 10 37 l-3 29 -110 2 c-156 4
-159 5 -151 54 14 86 84 210 162 284 42 40 128 91 195 115 73 26 97 26 104 -2z
m-555 -550 c5 -13 14 -49 20 -81 40 -202 238 -397 452 -441 37 -8 71 -17 77
-21 7 -4 11 -50 11 -121 0 -95 -3 -116 -16 -121 -28 -10 -182 26 -272 65 -265
115 -455 349 -507 625 -9 49 -14 95 -11 103 4 11 30 14 121 14 110 0 116 -1
125 -22z m1447 6 c3 -8 -2 -57 -12 -107 -65 -337 -354 -620 -693 -677 -40 -6
-79 -9 -87 -6 -12 4 -15 27 -15 113 0 116 6 135 42 140 134 20 238 73 338 173
100 100 153 204 173 338 5 36 24 42 140 42 89 0 109 -3 114 -16z"/>
</g>
</svg>
